<?xml version="1.0" encoding="utf-8"?>
<svg version="1.1" id="Layer_1"
xmlns="http://www.w3.org/2000/svg"
xmlns:xlink="http://www.w3.org/1999/xlink"
width="127px" height="32px"
xml:space="preserve">
<g id="PathID_1" transform="matrix(1.23886, 0, -5.08474e-008, 0.581626, -1.95, 29.9)" opacity="1">
<path style="fill:#8BC34A;fill-opacity:1" d="M13.15 -0.05L3.35 -37.45L10.05 -37.45L19.75 -0.05L13.15 -0.05M22.7 -37.45L29.3 -37.45L23.25 -14.05L21.9 -14.05L19.1 -23.5L22.7 -37.45" />
</g>
<g id="PathID_2" transform="matrix(1.23886, 0, -5.08474e-008, 0.581626, -1.95, 29.9)" opacity="1">
</g>
<g id="PathID_3" transform="matrix(0.324837, 0, -0.0194526, 0.0319507, 19.25, 4.55)" opacity="1">
<path style="fill:#8BC34A;fill-opacity:1" d="M51.5 -51.5L51.5 51.5L-51.5 51.5L-51.5 -51.5L51.5 -51.5" />
</g>
<g id="PathID_4" transform="matrix(0.324837, 0, -0.0194526, 0.0319507, 19.25, 4.55)" opacity="1">
</g>
<g id="PathID_5" transform="matrix(0.390057, 0, 0, 0.390057, 38.5, 26.4)" opacity="1">
<path style="fill:#020202;fill-opacity:1" d="M38.05 -36.85L44.65 -36.85L44.65 0L39.1 0L39.1 -29.5L23.75 -11.2L8.4 -29.5L8.4 0L2.85 0L2.85 -36.85L9.4 -36.85L23.75 -19.8L38.05 -36.85" />
</g>
<g id="PathID_6" transform="matrix(0.390057, 0, 0, 0.390057, 38.5, 26.4)" opacity="1">
</g>
<g id="PathID_7" transform="matrix(0.390057, 0, 0, 0.390057, 57, 26.4)" opacity="1">
<path style="fill:#020202;fill-opacity:1" d="M26.15 -29.7Q27.55 -29.7 28.75 -29.2Q29.95 -28.65 30.85 -27.75Q31.8 -26.8 32.3 -25.6Q32.8 -24.4 32.8 -23.05L32.8 -12.05L8.1 -12.05L8.1 -6.65Q8.1 -6.2 8.45 -5.85Q8.8 -5.5 9.25 -5.5L32.8 -5.5L32.8 0L9.25 0Q7.85 0 6.65 -0.5Q5.45 -1 4.55 -1.95Q3.6 -2.85 3.1 -4.05Q2.6 -5.25 2.6 -6.65L2.6 -23.05Q2.6 -24.4 3.1 -25.6Q3.6 -26.8 4.55 -27.75Q5.45 -28.65 6.65 -29.2Q7.85 -29.7 9.25 -29.7L26.15 -29.7M27.3 -17.6L27.3 -23.05Q27.3 -23.5 26.95 -23.85Q26.6 -24.15 26.15 -24.15L9.25 -24.15Q8.8 -24.15 8.45 -23.85Q8.1 -23.5 8.1 -23.05L8.1 -17.6L27.3 -17.6" />
</g>
<g id="PathID_8" transform="matrix(0.390057, 0, 0, 0.390057, 57, 26.4)" opacity="1">
</g>
<g id="PathID_9" transform="matrix(0.390057, 0, 0, 0.390057, 70.8, 26.4)" opacity="1">
<path style="fill:#020202;fill-opacity:1" d="M26.3 -29.7Q27.7 -29.7 28.9 -29.2Q30.1 -28.65 31 -27.75Q31.95 -26.8 32.45 -25.6Q32.95 -24.4 32.95 -23.05L32.95 0L27.45 0L27.45 -23.05Q27.45 -23.5 27.1 -23.85Q26.75 -24.15 26.3 -24.15L9.4 -24.15Q8.95 -24.15 8.6 -23.85Q8.3 -23.5 8.3 -23.05L8.3 0L2.75 0L2.75 -29.7L26.3 -29.7" />
</g>
<g id="PathID_10" transform="matrix(0.390057, 0, 0, 0.390057, 70.8, 26.4)" opacity="1">
</g>
<g id="PathID_11" transform="matrix(0.390057, 0, 0, 0.390057, 84.7, 26.4)" opacity="1">
<path style="fill:#020202;fill-opacity:1" d="M8.25 -24.15L8.25 -6.65Q8.25 -6.2 8.55 -5.85Q8.9 -5.5 9.35 -5.5L20.4 -5.5L20.4 0L9.35 0Q8 0 6.8 -0.5Q5.6 -1 4.65 -1.95Q3.75 -2.85 3.2 -4.05Q2.7 -5.25 2.7 -6.65L2.7 -23.05L2.7 -39.4L8.25 -39.4L8.25 -29.7L20.4 -29.7L20.4 -24.15L8.25 -24.15" />
</g>
<g id="PathID_12" transform="matrix(0.390057, 0, 0, 0.390057, 84.7, 26.4)" opacity="1">
</g>
<g id="PathID_13" transform="matrix(0.390057, 0, 0, 0.390057, 92.85, 26.4)" opacity="1">
<path style="fill:#020202;fill-opacity:1" d="M2.65 -29.7L8.2 -29.7L8.2 0L2.65 0L2.65 -29.7M8.2 -39.4L8.2 -33.9L2.65 -33.9L2.65 -39.4L8.2 -39.4" />
</g>
<g id="PathID_14" transform="matrix(0.390057, 0, 0, 0.390057, 92.85, 26.4)" opacity="1">
</g>
<g id="PathID_15" transform="matrix(0.390057, 0, 0, 0.390057, 97, 26.4)" opacity="1">
<path style="fill:#020202;fill-opacity:1" d="M26.15 -29.7Q27.55 -29.7 28.75 -29.2Q29.95 -28.65 30.85 -27.75Q31.8 -26.8 32.3 -25.6Q32.8 -24.4 32.8 -23.05L32.8 -6.65Q32.8 -5.25 32.3 -4.05Q31.8 -2.85 30.85 -1.95Q29.95 -1 28.75 -0.5Q27.55 0 26.15 0L9.25 0Q7.85 0 6.65 -0.5Q5.45 -1 4.55 -1.95Q3.6 -2.85 3.1 -4.05Q2.6 -5.25 2.6 -6.65L2.6 -23.05Q2.6 -24.4 3.1 -25.6Q3.6 -26.8 4.55 -27.75Q5.45 -28.65 6.65 -29.2Q7.85 -29.7 9.25 -29.7L26.15 -29.7M9.25 -24.15Q8.8 -24.15 8.45 -23.85Q8.1 -23.5 8.1 -23.05L8.1 -6.65Q8.1 -6.2 8.45 -5.85Q8.8 -5.5 9.25 -5.5L26.15 -5.5Q26.6 -5.5 26.95 -5.85Q27.3 -6.2 27.3 -6.65L27.3 -23.05Q27.3 -23.5 26.95 -23.85Q26.6 -24.15 26.15 -24.15L9.25 -24.15" />
</g>
<g id="PathID_16" transform="matrix(0.390057, 0, 0, 0.390057, 97, 26.4)" opacity="1">
</g>
<g id="PathID_17" transform="matrix(0.390057, 0, 0, 0.390057, 110.8, 26.4)" opacity="1">
<path style="fill:#020202;fill-opacity:1" d="M26.3 -29.7Q27.7 -29.7 28.9 -29.2Q30.1 -28.65 31 -27.75Q31.95 -26.8 32.45 -25.6Q32.95 -24.4 32.95 -23.05L32.95 0L27.45 0L27.45 -23.05Q27.45 -23.5 27.1 -23.85Q26.75 -24.15 26.3 -24.15L9.4 -24.15Q8.95 -24.15 8.6 -23.85Q8.3 -23.5 8.3 -23.05L8.3 0L2.75 0L2.75 -29.7L26.3 -29.7" />
</g>
<g id="PathID_18" transform="matrix(0.390057, 0, 0, 0.390057, 110.8, 26.4)" opacity="1">
</g>
</svg>
