<?xml version="1.0" encoding="utf-8"?>
<svg version="1.1" id="Layer_1"
xmlns="http://www.w3.org/2000/svg"
xmlns:xlink="http://www.w3.org/1999/xlink"
width="400px" height="400px"
xml:space="preserve">
<g id="PathID_1" transform="matrix(0.732264, 0, 0, 0.732264, 24.5, 26.5)" opacity="1">
<path style="fill:#8BC34A;fill-opacity:1" d="M426.95 104.5Q439.95 110.1 449.6 119.8Q459.3 129.45 464.9 142.45Q470.55 155.45 470.55 170.2L470.55 285.2Q470.55 299.9 464.9 312.9Q459.3 325.9 449.6 335.55Q439.95 345.25 426.95 350.85Q413.95 356.5 399.25 356.5L386.75 356.5L386.75 446.9Q386.75 454.25 383.9 460.7Q381.1 467.2 376.3 472.05Q371.45 476.85 364.95 479.65Q358.5 482.5 351.15 482.5L130.05 482.5Q122.7 482.5 116.2 479.65Q109.7 476.85 104.9 472.05Q100.05 467.2 97.25 460.7Q94.45 454.25 94.45 446.9L94.45 356.5L83.25 356.5Q68.5 356.5 55.5 350.85Q42.5 345.25 32.85 335.55Q23.15 325.9 17.55 312.9Q11.95 299.9 11.95 285.2L11.95 170.2Q11.95 155.45 17.55 142.45Q23.15 129.45 32.85 119.8Q42.5 110.1 55.5 104.5Q68.5 98.9 83.25 98.9L94.55 98.9L94.55 71.3Q94.55 56.55 100.15 43.55Q105.75 30.55 115.45 20.9Q125.1 11.2 138.1 5.6Q151.1 0 165.85 0L315.55 0Q330.25 0 343.25 5.6Q356.25 11.2 365.9 20.9Q375.6 30.55 381.2 43.55Q386.85 56.55 386.85 71.3L386.85 98.9L399.25 98.9Q413.95 98.9 426.95 104.5M121.45 98.9L359.65 98.9L359.65 71.3Q359.65 62.15 356.15 54.05Q352.65 46 346.65 40Q340.6 33.95 332.55 30.45Q324.5 27 315.35 27L165.75 27Q156.6 27 148.5 30.45Q140.45 33.95 134.45 40Q128.4 46 124.9 54.05Q121.45 62.15 121.45 71.3L121.45 98.9M359.75 298L121.45 298L121.45 447.1Q121.45 448.85 122.1 450.4Q122.8 451.95 123.95 453.15Q125.15 454.3 126.7 455Q128.25 455.7 130.05 455.7L351.15 455.7Q352.9 455.7 354.45 455Q356 454.3 357.2 453.15Q358.35 451.95 359.05 450.4Q359.75 448.85 359.75 447.1L359.75 298M443.55 170.3Q443.55 161.15 440.05 153.05Q436.55 145 430.55 139Q424.5 132.95 416.45 129.45Q408.4 126 399.25 126L83.25 126Q74.1 126 66 129.45Q57.95 132.95 51.95 139Q45.9 145 42.4 153.05Q38.95 161.15 38.95 170.3L38.95 285.3Q38.95 294.45 42.4 302.5Q45.9 310.55 51.95 316.6Q57.95 322.6 66 326.1Q74.1 329.6 83.25 329.6L94.55 329.6L94.55 298L74.65 298Q71.8 298 69.35 296.9Q66.9 295.85 65.05 294.05Q63.25 292.2 62.2 289.75Q61.15 287.3 61.15 284.5Q61.15 281.65 62.2 279.2Q63.25 276.75 65.05 274.9Q66.9 273.1 69.35 272.05Q71.8 271 74.65 271L404.65 271Q407.45 271 409.9 272.05Q412.35 273.1 414.2 274.9Q416 276.75 417.05 279.2Q418.15 281.65 418.15 284.5Q418.15 287.3 417.05 289.75Q416 292.2 414.2 294.05Q412.35 295.85 409.9 296.9Q407.45 298 404.65 298L386.85 298L386.85 329.6L399.25 329.6Q408.4 329.6 416.45 326.1Q424.5 322.6 430.55 316.6Q436.55 310.55 440.05 302.5Q443.55 294.45 443.55 285.3L443.55 170.3" />
</g>
<g id="PathID_2" transform="matrix(0.732264, 0, 0, 0.732264, 24.5, 26.5)" opacity="1">
</g>
<g id="PathID_3" transform="matrix(0.732264, 0, 0, 0.732264, 24.5, 26.5)" opacity="1">
<path style="fill:#8BC34A;fill-opacity:1" d="M404.2 152.95Q406.65 154 408.5 155.8Q410.3 157.65 411.35 160.1Q412.45 162.55 412.45 165.4Q412.45 168.2 411.35 170.65Q410.3 173.1 408.5 174.95Q406.65 176.75 404.2 177.8Q401.75 178.9 398.95 178.9L371.55 178.9Q368.7 178.9 366.25 177.8Q363.8 176.75 361.95 174.95Q360.15 173.1 359.1 170.65Q358.05 168.2 358.05 165.4Q358.05 162.55 359.1 160.1Q360.15 157.65 361.95 155.8Q363.8 154 366.25 152.95Q368.7 151.9 371.55 151.9L398.95 151.9Q401.75 151.9 404.2 152.95" />
</g>
<g id="PathID_4" transform="matrix(0.732264, 0, 0, 0.732264, 24.5, 26.5)" opacity="1">
</g>
<g id="PathID_5" transform="matrix(3.53358, 0, 0, 1.65897, 140.35, 340.9)" opacity="0.996094">
<path style="fill:#808080;fill-opacity:1" d="M13.15 -0.05L3.35 -37.45L10.05 -37.45L19.75 -0.05L13.15 -0.05M22.7 -37.45L29.3 -37.45L23.25 -14.05L21.9 -14.05L19.1 -23.5L22.7 -37.45" />
</g>
<g id="PathID_6" transform="matrix(3.53358, 0, 0, 1.65897, 140.35, 340.9)" opacity="0.996094">
</g>
<g id="PathID_7" transform="matrix(0.926503, 0, -0.0554708, 0.0911306, 201.2, 269.05)" opacity="0.996094">
<path style="fill:#808080;fill-opacity:1" d="M51.5 -51.5L51.5 51.5L-51.5 51.5L-51.5 -51.5L51.5 -51.5" />
</g>
<g id="PathID_8" transform="matrix(0.926503, 0, -0.0554708, 0.0911306, 201.2, 269.05)" opacity="0.996094">
</g>
</svg>
