<?xml version="1.0" encoding="utf-8"?>
<svg version="1.1" id="Layer_1"
xmlns="http://www.w3.org/2000/svg"
xmlns:xlink="http://www.w3.org/1999/xlink"
width="400px" height="400px"
xml:space="preserve">
<g id="PathID_1" transform="matrix(6.43193, 0, 0, 6.43193, 27.3, 14.55)" opacity="1">
<path style="fill:#8BC34A;fill-opacity:1" d="M54.55 5.55Q55.2 7.2 55.15 8.95Q55.15 10.7 54.4 12.35Q53.7 14.05 52.3 15.4L16.25 51.45L16.2 51.45L16.2 51.5L16.1 51.5L16.05 51.55L16 51.55L16 51.6L15.95 51.6L15.9 51.6L1.05 55.1L1 55.1L0.95 55.1L0.85 55.1L0.75 55.05L0.65 55.05L0.55 55.05L0.5 55.05L0.4 55L0.3 54.95L0.25 54.85L0.2 54.85L0.15 54.8L0.1 54.7L0.05 54.65L0.05 54.6L0.05 54.55L0 54.45L0 54.4L0 54.3L0 54.25L0 54.2L0 54.15L0 54.1L0.1 54.05L0.1 53.95L0.1 53.9L0.1 53.85L3.6 39L3.6 38.95L3.6 38.9L3.65 38.85L3.65 38.75L3.7 38.75L3.7 38.7L3.75 38.7L3.75 38.65L3.8 38.65L39.9 2.6Q41.2 1.25 42.85 0.6Q44.5 -0.05 46.25 -0.05Q47.95 -0.05 49.6 0.6Q51.25 1.25 52.6 2.6Q53.9 3.9 54.55 5.55M5.15 50.55L5.25 50.95L5.15 51.35Q5.1 51.55 4.95 51.7L4.2 52.45L14.9 49.85L15.35 45.45L10.25 46L10.2 46L10.15 46L10.1 46L10.05 46L10 46L9.95 46L9.9 45.95L9.8 45.95L9.7 45.85L9.6 45.75L9.55 45.7L9.5 45.7L9.45 45.65L9.4 45.65L9.35 45.6L9.3 45.55L9.25 45.5L9.2 45.45L9.2 45.4L9.2 45.35L9.15 45.3L9.15 45.25L9.15 45.2L9.15 45.15L9.15 45.1L9.15 45.05L9.15 45L9.15 44.95L9.7 39.85L5.3 40.3L2.75 51L3.55 50.25L3.85 50.05L4.25 49.95Q4.45 49.95 4.6 50.05Q4.8 50.1 4.95 50.25L5.15 50.55M17.15 47.95L51.35 14.1L41.4 4.1L7.25 38.05L10.4 37.7L32.75 15.35L33.05 15.1L33.45 15.05L33.8 15.1L34.15 15.35L34.3 15.65L34.4 16.05Q34.4 16.25 34.3 16.4L34.15 16.75L11.8 39.1L11.3 43.85L16.05 43.35L38.45 21L38.75 20.75L39.15 20.7L39.5 20.75L39.85 21L40 21.3L40.1 21.7Q40.1 21.9 40 22.05L39.85 22.4L17.5 44.8L17.15 47.95M52.95 10.85Q53.25 9.65 53.2 8.4Q53.1 7.2 52.6 6.05Q52.1 4.9 51.2 4Q50.25 3.05 49.1 2.55Q47.9 2.05 46.7 1.95Q45.5 1.9 44.3 2.2L52.95 10.85" />
</g>
<g id="PathID_2" transform="matrix(6.43193, 0, 0, 6.43193, 27.3, 14.55)" opacity="1">
</g>
<g id="PathID_3" transform="matrix(1.8617, -1.84185, 0.864726, 0.874042, 286.15, 159.25)" opacity="0.996094">
<path style="fill:#808080;fill-opacity:1" d="M13.15 -0.05L3.35 -37.45L10.05 -37.45L19.75 -0.05L13.15 -0.05M22.7 -37.45L29.3 -37.45L23.25 -14.05L21.9 -14.05L19.1 -23.5L22.7 -37.45" />
</g>
<g id="PathID_4" transform="matrix(1.8617, -1.84185, 0.864726, 0.874042, 286.15, 159.25)" opacity="0.996094">
</g>
<g id="PathID_5" transform="matrix(0.488137, -0.482934, 0.0182759, 0.0769268, 280.75, 89.7)" opacity="0.996094">
<path style="fill:#808080;fill-opacity:1" d="M51.5 -51.5L51.5 51.5L-51.5 51.5L-51.5 -51.5L51.5 -51.5" />
</g>
<g id="PathID_6" transform="matrix(0.488137, -0.482934, 0.0182759, 0.0769268, 280.75, 89.7)" opacity="0.996094">
</g>
</svg>
