<?xml version="1.0" encoding="utf-8"?>
<svg version="1.1" id="Layer_1"
xmlns="http://www.w3.org/2000/svg"
xmlns:xlink="http://www.w3.org/1999/xlink"
width="400px" height="400px"
xml:space="preserve">
<g id="PathID_1" transform="matrix(-2.47909, -2.16729e-007, 2.16729e-007, -2.47909, 386.8, 347.45)" opacity="1">
<path style="fill:#8BC34A;fill-opacity:1" d="M132.2 11.55L43.4 11.55Q40.85 11.55 39 13.4Q37.15 15.25 37.15 17.8L37.15 83.3Q37.15 85.85 39 87.7Q40.85 89.55 43.4 89.55L132.2 89.55Q134.75 89.55 136.6 87.7Q138.45 85.85 138.45 83.3L138.45 17.8Q138.45 15.25 136.6 13.4Q134.75 11.55 132.2 11.55M150 17.8L150 83.3Q150 90.7 144.7 95.75Q139.6 101.1 132.2 101.1L124.15 101.1L124.15 105Q124.15 112.4 119.05 117.7Q113.75 122.75 106.35 122.75L17.75 122.75Q10.4 122.75 5.05 117.7Q0 112.4 0 105L0 39.45Q0 32.1 5.05 27Q10.4 21.7 17.75 21.7L25.6 21.7L25.6 17.8Q25.6 10.4 30.9 5.1Q36 0 43.4 0L132.2 0Q139.6 0 144.7 5.1Q150 10.4 150 17.8M13.4 35.1Q11.55 36.95 11.55 39.45L11.55 105Q11.55 107.55 13.4 109.4Q15.2 111.25 17.75 111.25L106.35 111.25Q108.9 111.25 110.75 109.4Q112.6 107.55 112.6 105L112.6 101.1L43.4 101.1Q36.2 101.1 30.9 95.75Q25.6 90.7 25.6 83.3L25.6 33.25L17.75 33.25Q15.2 33.25 13.4 35.1" />
</g>
<g id="PathID_2" transform="matrix(-2.47909, -2.16729e-007, 2.16729e-007, -2.47909, 386.8, 347.45)" opacity="1">
</g>
<g id="PathID_3" transform="matrix(3.53358, 0, 0, 1.65897, 108.65, 267.9)" opacity="0.996094">
<path style="fill:#808080;fill-opacity:1" d="M13.15 -0.05L3.35 -37.45L10.05 -37.45L19.75 -0.05L13.15 -0.05M22.7 -37.45L29.3 -37.45L23.25 -14.05L21.9 -14.05L19.1 -23.5L22.7 -37.45" />
</g>
<g id="PathID_4" transform="matrix(3.53358, 0, 0, 1.65897, 108.65, 267.9)" opacity="0.996094">
</g>
<g id="PathID_5" transform="matrix(0.926503, 0, -0.0554708, 0.0911306, 169.5, 196.05)" opacity="0.996094">
<path style="fill:#808080;fill-opacity:1" d="M51.5 -51.5L51.5 51.5L-51.5 51.5L-51.5 -51.5L51.5 -51.5" />
</g>
<g id="PathID_6" transform="matrix(0.926503, 0, -0.0554708, 0.0911306, 169.5, 196.05)" opacity="0.996094">
</g>
</svg>
